<svg preserveAspectRatio="none" width="100%" height="100%" overflow="visible" style="display: block;" viewBox="0 0 19.9063 19.9056" fill="none" xmlns="http://www.w3.org/2000/svg">
<g id="Vector">
<path fill-rule="evenodd" clip-rule="evenodd" d="M7.01264 3.44824C7.61067 1.69829 10.0283 1.64508 10.7373 3.28906L10.7978 3.44922L11.6044 5.80859C11.7894 6.3498 12.0878 6.84582 12.4804 7.26172C12.873 7.6776 13.3511 8.00395 13.8808 8.21973L14.0976 8.30078L16.457 9.10742C18.2068 9.70548 18.26 12.123 16.6171 12.832L16.457 12.8916L14.0976 13.6992L13.8964 13.7734C13.4333 13.9598 13.0085 14.2317 12.6445 14.5752L12.4921 14.7266C12.1481 15.088 11.8743 15.5113 11.6855 15.9746L11.6044 16.1914L10.7988 18.5518L10.7373 18.7109C10.0512 20.3037 7.7601 20.3036 7.07417 18.7119L7.01264 18.5518L6.206 16.1924C6.04425 15.7186 5.79544 15.2795 5.4726 14.8984L5.33002 14.7393C4.93751 14.3233 4.46022 13.9962 3.93061 13.7803L3.71479 13.6992L1.35444 12.8926C-0.39653 12.2946 -0.449693 9.87695 1.19428 9.16895L1.35444 9.10742L3.71479 8.30078C4.18805 8.13898 4.62617 7.88992 5.00678 7.56738L5.16694 7.4248C5.58269 7.03231 5.90917 6.55486 6.12495 6.02539L6.206 5.80859L7.01264 3.44824ZM8.88471 3.59473C8.77381 3.59859 8.67779 3.63334 8.60737 3.68262C8.56055 3.71541 8.51089 3.76357 8.46967 3.84277L8.43159 3.93262L7.62592 6.29395L7.61909 6.31445L7.61127 6.33594L7.53022 6.55176L7.51459 6.59082C7.2179 7.31911 6.76808 7.97578 6.19624 8.51563C5.69593 8.98786 5.1121 9.36181 4.47553 9.61816L4.19917 9.7207L1.87592 10.5127L1.78217 10.5488C1.59603 10.6313 1.49226 10.7988 1.49995 11.0205C1.50383 11.1313 1.53848 11.2274 1.58784 11.2979C1.63162 11.3603 1.70332 11.4273 1.83881 11.4736L4.19917 12.2793L4.22065 12.2871L4.24116 12.2949L4.45698 12.376L4.47651 12.3828L4.49604 12.3906C5.22446 12.6875 5.88101 13.1379 6.42084 13.71C6.96054 14.282 7.37181 14.9628 7.62592 15.707L8.41792 18.0293L8.45405 18.123C8.53619 18.3089 8.70326 18.413 8.92573 18.4053C9.03664 18.4014 9.13261 18.3667 9.20307 18.3174C9.26549 18.2736 9.33262 18.2025 9.37885 18.0674L10.1845 15.7061L10.1923 15.6855L10.2001 15.6641L10.2812 15.4482L10.288 15.4287L10.2958 15.4092C10.5927 14.6807 11.0431 14.0242 11.6152 13.4844C12.1872 12.9447 12.868 12.5334 13.6123 12.2793L15.9511 11.4795L16.0371 11.4473C16.2173 11.3633 16.3181 11.1982 16.3105 10.9795C16.3066 10.8685 16.2719 10.7726 16.2226 10.7021C16.1789 10.6397 16.1077 10.5726 15.9726 10.5264L13.6123 9.7207L13.5927 9.71387L13.5732 9.70605L13.3554 9.625L13.3144 9.60938C12.5861 9.31268 11.9294 8.86286 11.3896 8.29102C10.8499 7.7192 10.4388 7.03802 10.1845 6.29395L9.38178 3.94629L9.35151 3.86719C9.26707 3.68745 9.10238 3.58726 8.88471 3.59473Z" fill="var(--fill-0, #505862)"/>
<path fill-rule="evenodd" clip-rule="evenodd" d="M16.9052 1.22957e-07C17.0922 2.67589e-05 17.2758 0.0524069 17.4345 0.151367C17.5931 0.250315 17.7214 0.391704 17.8037 0.55957L17.8515 0.676758L18.2011 1.70313L19.2285 2.05273C19.4157 2.1164 19.5798 2.23462 19.7001 2.3916C19.8204 2.54866 19.8915 2.73815 19.9042 2.93555C19.9169 3.13312 19.8708 3.33071 19.7714 3.50195L19.6884 3.62402C19.5966 3.73905 19.4799 3.83316 19.3466 3.89844L19.2285 3.94629L18.2021 4.2959L17.8525 5.32324L17.7949 5.45898C17.7275 5.58979 17.6314 5.70473 17.5136 5.79492L17.3896 5.87598C17.2608 5.9472 17.1168 5.98961 16.9687 5.99902L16.8212 5.99707C16.6745 5.98464 16.5316 5.93978 16.4033 5.86523C16.2749 5.79065 16.1654 5.68867 16.082 5.56738L16.0078 5.44043L15.9589 5.32324L15.6093 4.29688L14.582 3.94727C14.4415 3.89949 14.3137 3.82115 14.208 3.71875L14.1103 3.6084C14.02 3.49045 13.9576 3.35403 13.9267 3.20996L13.9062 3.06445C13.8936 2.86685 13.9396 2.6693 14.039 2.49805C14.1135 2.36969 14.2156 2.26026 14.3369 2.17676L14.4648 2.10156L14.582 2.05371L15.6083 1.7041L15.958 0.676758C16.0254 0.479246 16.1534 0.307903 16.3232 0.186524C16.493 0.0651815 16.6965 -0.000103412 16.9052 1.22957e-07ZM16.79 2.88574L16.454 3L16.791 3.11523L16.9052 3.4502L17.0205 3.11426L17.3554 2.99902L17.0195 2.88477L16.9042 2.54883L16.79 2.88574Z" fill="var(--fill-0, #505862)"/>
</g>
</svg>
