<svg preserveAspectRatio="none" width="100%" height="100%" overflow="visible" style="display: block;" viewBox="0 0 20 12.4813" fill="none" xmlns="http://www.w3.org/2000/svg">
<path id="Vector" d="M19.78 1.26129C19.9125 1.11912 19.9846 0.93107 19.9812 0.736769C19.9777 0.542468 19.899 0.357083 19.7616 0.21967C19.6242 0.0822568 19.4388 0.00354506 19.2445 0.000116847C19.0502 -0.00331137 18.8622 0.0688116 18.72 0.201292L11.22 7.70129C11.1463 7.76995 11.0872 7.85275 11.0462 7.94475C11.0052 8.03675 10.9832 8.13607 10.9814 8.23677C10.9796 8.33747 10.9982 8.4375 11.0359 8.53089C11.0736 8.62428 11.1297 8.70911 11.201 8.78033C11.2722 8.85155 11.357 8.90769 11.4504 8.94541C11.5438 8.98314 11.6438 9.00166 11.7445 8.99988C11.8452 8.99811 11.9445 8.97606 12.0365 8.93507C12.1285 8.89408 12.2113 8.83498 12.28 8.76129L19.78 1.26129ZM19.947 2.50929C19.9823 2.67796 20 2.85196 20 3.03129V9.93129C20 10.2662 19.934 10.5978 19.8059 10.9071C19.6777 11.2165 19.4899 11.4976 19.2531 11.7344C19.0163 11.9712 18.7352 12.159 18.4258 12.2872C18.1165 12.4153 17.7849 12.4813 17.45 12.4813H2.55C2.21513 12.4813 1.88354 12.4153 1.57416 12.2872C1.26478 12.159 0.983667 11.9712 0.746878 11.7344C0.510088 11.4976 0.322257 11.2165 0.194107 10.9071C0.0659578 10.5978 0 10.2662 0 9.93129V3.03129C0 2.35499 0.26866 1.70639 0.746878 1.22817C1.2251 0.749952 1.8737 0.481292 2.55 0.481292H17.025L15.525 1.98129H2.55C1.97 1.98129 1.5 2.45129 1.5 3.03129V9.93129C1.5 10.5113 1.97 10.9813 2.55 10.9813H17.45C18.03 10.9813 18.5 10.5113 18.5 9.93129V3.95629L19.947 2.50929ZM2.5 4.73129C2.5 4.53238 2.57902 4.34161 2.71967 4.20096C2.86032 4.06031 3.05109 3.98129 3.25 3.98129H5.25C5.44891 3.98129 5.63968 4.06031 5.78033 4.20096C5.92098 4.34161 6 4.53238 6 4.73129C6 4.9302 5.92098 5.12097 5.78033 5.26162C5.63968 5.40227 5.44891 5.48129 5.25 5.48129H3.25C3.05109 5.48129 2.86032 5.40227 2.71967 5.26162C2.57902 5.12097 2.5 4.9302 2.5 4.73129ZM2.5 8.23129C2.5 8.03238 2.57902 7.84161 2.71967 7.70096C2.86032 7.56031 3.05109 7.48129 3.25 7.48129H8.25C8.44891 7.48129 8.63968 7.56031 8.78033 7.70096C8.92098 7.84161 9 8.03238 9 8.23129C9 8.4302 8.92098 8.62097 8.78033 8.76162C8.63968 8.90227 8.44891 8.98129 8.25 8.98129H3.25C3.05109 8.98129 2.86032 8.90227 2.71967 8.76162C2.57902 8.62097 2.5 8.4302 2.5 8.23129Z" fill="var(--fill-0, #505862)"/>
</svg>
