<svg preserveAspectRatio="none" width="100%" height="100%" overflow="visible" style="display: block;" viewBox="0 0 16.9877 19.9941" fill="none" xmlns="http://www.w3.org/2000/svg">
<path id="Vector" d="M9.98773 0C11.5854 0 12.8914 1.24892 12.9817 2.81903L12.9867 2.99476L15.2377 2.99576C16.1049 2.99576 16.8247 3.62649 16.9636 4.45434L16.9819 4.60239L16.9877 4.74595L16.9868 8.49696L14.9892 8.49707C14.2456 8.49707 13.623 9.04025 13.5092 9.73611L13.494 9.86828L13.4892 9.99707C13.4892 10.7407 14.0324 11.3633 14.7282 11.477L14.8604 11.4923L14.9892 11.4971L16.9868 11.497L16.9877 15.2484C16.9877 16.1666 16.2806 16.9196 15.3812 16.9926L15.2376 16.9984L12.9867 16.9978L12.9826 17.1704C12.8983 18.6262 11.7758 19.8036 10.3445 19.9732L10.164 19.9891L9.98773 19.9941C8.39005 19.9941 7.08407 18.7452 6.99282 17.1737L6.98773 16.9978L4.73773 16.9984C3.87057 16.9984 3.15071 16.3677 3.01191 15.5401L2.99353 15.3921L2.98773 15.2486L2.98673 12.9968L2.82373 12.992C1.36791 12.9076 0.190586 11.7852 0.0209908 10.3538L0.00509262 10.1733L0 9.99707C0 8.39939 1.24892 7.09341 2.82366 7.00216L2.98673 6.99676L2.98773 4.74576C2.98773 3.8786 3.61845 3.15875 4.44604 3.01994L4.59404 3.00156L4.73754 2.99576L6.98673 2.99476L6.99282 2.82373C7.07717 1.36791 8.19963 0.190586 9.63098 0.0209908L9.81146 0.00509286L9.98773 0ZM9.98773 1.5C9.20803 1.5 8.56728 2.09489 8.4946 2.85615L8.48773 3.00073L8.48627 4.49481L4.73773 4.49576C4.61938 4.49576 4.52024 4.578 4.49433 4.68856L4.48773 4.74595L4.48682 8.49693L3 8.49707C2.17157 8.49707 1.5 9.16865 1.5 9.99707C1.5 10.7768 2.09489 11.4175 2.85548 11.4902L2.99993 11.4971L4.48682 11.4969L4.48773 15.2484C4.48773 15.3667 4.56996 15.4659 4.68035 15.4918L4.73763 15.4984L8.48627 15.4979L8.48773 16.9941C8.48773 17.8226 9.1593 18.4941 9.98773 18.4941C10.7674 18.4941 11.4082 17.8993 11.4809 17.1392L11.4877 16.9949L11.4863 15.4979L15.2377 15.4984C15.3561 15.4984 15.4552 15.4161 15.4811 15.3058L15.4877 15.2486L15.4867 12.9958L14.9639 12.9966L14.7845 12.9902C13.2733 12.888 12.0805 11.6727 11.9946 10.149L11.9896 9.97181L11.9961 9.79243C12.0983 8.28114 13.3136 7.08835 14.8147 7.00207L14.9892 6.99707L15.4867 6.99676L15.4877 4.74576C15.4877 4.65109 15.4351 4.5687 15.3574 4.52627L15.2949 4.50237L15.2375 4.49576L11.4863 4.49481L11.4877 3C11.4877 2.17157 10.8162 1.5 9.98773 1.5Z" fill="var(--fill-0, #505862)"/>
</svg>
