<svg preserveAspectRatio="none" width="100%" height="100%" overflow="visible" style="display: block;" viewBox="0 0 20 20" fill="none" xmlns="http://www.w3.org/2000/svg">
<path id="Vector" d="M0 10C0 4.477 4.477 0 10 0C15.523 0 20 4.477 20 10C20 15.523 15.523 20 10 20C4.477 20 0 15.523 0 10ZM1.5 10C1.5 12.2543 2.39553 14.4163 3.98959 16.0104C5.58365 17.6045 7.74566 18.5 10 18.5C12.2543 18.5 14.4163 17.6045 16.0104 16.0104C17.6045 14.4163 18.5 12.2543 18.5 10C18.5 7.74566 17.6045 5.58365 16.0104 3.98959C14.4163 2.39553 12.2543 1.5 10 1.5C7.74566 1.5 5.58365 2.39553 3.98959 3.98959C2.39553 5.58365 1.5 7.74566 1.5 10V10ZM7.97 14.53C7.82955 14.3894 7.75066 14.1988 7.75066 14C7.75066 13.8012 7.82955 13.6106 7.97 13.47L11.44 10L7.97 6.53C7.83752 6.38782 7.7654 6.19978 7.76882 6.00548C7.77225 5.81118 7.85097 5.62579 7.98838 5.48838C8.12579 5.35097 8.31118 5.27225 8.50548 5.26883C8.69978 5.2654 8.88782 5.33752 9.03 5.47L13.03 9.47C13.1705 9.61063 13.2493 9.80125 13.2493 10C13.2493 10.1988 13.1705 10.3894 13.03 10.53L9.03 14.53C8.88937 14.6705 8.69875 14.7493 8.5 14.7493C8.30125 14.7493 8.11063 14.6705 7.97 14.53Z" fill="var(--fill-0, #505862)"/>
</svg>
