<svg preserveAspectRatio="none" width="100%" height="100%" overflow="visible" style="display: block;" viewBox="0 0 20 20.9971" fill="none" xmlns="http://www.w3.org/2000/svg">
<path id="Union" d="M20 18.4971C20 19.8771 17.761 20.9971 15 20.9971C12.95 20.9971 11.188 20.3801 10.416 19.4971C10.148 19.1911 10 18.8531 10 18.4971V14.4893C10.3103 14.7531 10.6517 14.9782 11.0166 15.1592C12.0876 15.6952 13.498 15.9971 15 15.9971C15.5018 15.9967 16.003 15.9614 16.5 15.8926C17.03 15.8186 17.534 15.7047 18 15.5547C18.3372 15.4477 18.6662 15.3158 18.9834 15.1592C19.3483 14.9782 19.6897 14.7531 20 14.4893V18.4971ZM9 0C9.53066 0 10.0444 0.187319 10.4502 0.529297L17.2002 6.2207C17.7072 6.6487 18 7.27841 18 7.94141V9.43848C17.7384 9.35549 17.4729 9.28526 17.2051 9.22656L17.2061 9.22754C16.5173 9.07762 15.7708 8.99709 15 8.99707C14.7745 8.99708 14.5506 9.00515 14.3301 9.01855C13.8749 8.85772 13.2965 8.74714 12.5342 8.74707C11.1672 8.74716 10.107 9.31447 8.95801 9.9834C7.85781 10.6239 6.58871 11.4237 5.02246 11.4238C3.59173 11.4237 2.37477 11.0514 1.5 10.6396V13.251C2.086 13.6392 3.36727 14.2469 5.02246 14.2471C6.78077 14.247 7.71784 13.6717 8.67188 13.0342C8.787 12.9572 8.90354 12.8781 9.02246 12.7988C9.03152 12.866 9.04142 12.9323 9.05566 12.9971H9V14.6064C8.04814 15.1989 6.87823 15.747 5.02246 15.7471C3.59235 15.7469 2.37504 15.3761 1.5 14.9639V17.25C1.5 17.388 1.612 17.5 1.75 17.5H9V18.4961C9.00067 18.6707 9.01902 18.8387 9.05566 19H1.75C1.2861 19 0.840845 18.8162 0.512695 18.4883C0.184535 18.1603 0.000265118 17.7149 0 17.251V7.94141C0 7.27841 0.292805 6.6487 0.799805 6.2207L7.5498 0.529297C7.95557 0.187319 8.46934 0 9 0ZM15 9.99707C15.2939 9.99724 15.5874 10.0111 15.8799 10.0371C15.8941 10.0384 15.9087 10.0397 15.9229 10.041C16.0318 10.0512 16.1405 10.0634 16.249 10.0771C16.2709 10.0799 16.2927 10.083 16.3145 10.0859C16.3763 10.0942 16.4383 10.1019 16.5 10.1113C16.5461 10.1183 16.5918 10.1279 16.6377 10.1357C16.6553 10.1388 16.6729 10.1414 16.6904 10.1445C16.8006 10.1642 16.9104 10.1856 17.0195 10.21C17.0366 10.2137 17.0533 10.2188 17.0703 10.2227C17.1582 10.2429 17.2459 10.2638 17.333 10.2871C17.3525 10.2923 17.3722 10.2965 17.3916 10.3018L17.3896 10.3027C17.5954 10.3596 17.7994 10.4232 18 10.4971C19.214 10.9531 20 11.6791 20 12.4971C20 13.3151 19.214 14.0411 18 14.4971C17.5143 14.6758 17.0117 14.8049 16.5 14.8828C16.026 14.9568 15.523 14.9971 15 14.9971C12.239 14.9971 10 13.8771 10 12.4971C10 12.4485 10.0033 12.4004 10.0088 12.3525C10.0107 12.3362 10.0141 12.32 10.0166 12.3037C10.0222 12.2674 10.0285 12.2312 10.0371 12.1953C10.0376 12.1934 10.0376 12.1914 10.0381 12.1895V12.1885C10.3424 10.9539 12.4481 9.99707 15 9.99707ZM9 1.5C8.82326 1.5 8.65181 1.56196 8.5166 1.67578L1.7666 7.36719C1.68323 7.43745 1.61637 7.5252 1.57031 7.62402C1.5242 7.72299 1.50011 7.83124 1.5 7.94043V8.92969C2.08712 9.31742 3.36859 9.92364 5.02246 9.92383C6.1051 9.92367 7.00503 9.38502 8.20312 8.6875C9.35259 8.0183 10.7249 7.24716 12.5342 7.24707C13.9231 7.24717 14.9191 7.55312 15.6895 7.99707C15.998 8.17499 16.2659 8.37551 16.5 8.57227V7.94141C16.4999 7.83222 16.4758 7.72397 16.4297 7.625C16.3836 7.52618 16.3168 7.43842 16.2334 7.36816L9.4834 1.67578C9.34819 1.56196 9.17674 1.5 9 1.5Z" fill="var(--fill-0, #575B61)"/>
</svg>
