<svg preserveAspectRatio="none" width="100%" height="100%" overflow="visible" style="display: block;" viewBox="0 0 18 20" fill="none" xmlns="http://www.w3.org/2000/svg">
<g id="Vector">
<path fill-rule="evenodd" clip-rule="evenodd" d="M9.00001 4C10.6569 4 12 5.34315 12 7C12 8.65685 10.6569 10 9.00001 10C7.34316 10 6.00001 8.65685 6.00001 7C6.00001 5.34315 7.34316 4 9.00001 4ZM9.00001 5.5C8.17159 5.5 7.50001 6.17157 7.50001 7C7.50001 7.82843 8.17159 8.5 9.00001 8.5C9.82844 8.5 10.5 7.82843 10.5 7C10.5 6.17157 9.82844 5.5 9.00001 5.5Z" fill="var(--fill-0, #505862)"/>
<path d="M5.25 15C5.6612 15 5.99511 14.6691 5.99995 14.259H6.0048V14.2571C5.94227 13.0635 6.77012 12.5 8.93801 12.5C11.0677 12.5 11.9631 13.0562 12.0034 14.1784C12.0011 14.2019 12 14.2258 12 14.25C12 14.6642 12.3358 15 12.75 15C13.1612 15 13.4951 14.6691 13.4999 14.259H13.5048C13.5048 12.0898 11.8469 11 8.93801 11C6.06113 11 4.43887 12.0745 4.50176 14.1982C4.50059 14.2153 4.5 14.2326 4.5 14.25C4.5 14.6642 4.83579 15 5.25 15Z" fill="var(--fill-0, #505862)"/>
<path fill-rule="evenodd" clip-rule="evenodd" d="M0.75 3C0.335786 3 0 3.33579 0 3.75V9C0 14.0012 2.95756 17.6757 8.72511 19.9478C8.90176 20.0174 9.09824 20.0174 9.27489 19.9478C15.0424 17.6757 18 14.0012 18 9V3.75C18 3.33579 17.6642 3 17.25 3C14.5866 3 11.992 2.05652 9.45 0.15C9.18333 -0.05 8.81667 -0.05 8.55 0.15C6.00797 2.05652 3.41341 3 0.75 3ZM1.5 9V4.47793C4.07735 4.32585 6.58084 3.38829 9 1.67782C11.4192 3.38829 13.9227 4.32585 16.5 4.47793V9C16.5 13.2556 14.0466 16.3789 9 18.4419C3.95337 16.3789 1.5 13.2556 1.5 9Z" fill="var(--fill-0, #505862)"/>
</g>
</svg>
