<svg preserveAspectRatio="none" width="100%" height="100%" overflow="visible" style="display: block;" viewBox="0 0 16 20" fill="none" xmlns="http://www.w3.org/2000/svg">
<g id="Vector">
<path fill-rule="evenodd" clip-rule="evenodd" d="M12.5 13.3501C12.5 12.3841 11.716 11.6001 10.75 11.6001H5.25C4.284 11.6001 3.5 12.3841 3.5 13.3501V14.3501C3.5 16.5191 5.157 17.6091 8.067 17.6091C10.988 17.6091 12.616 16.5021 12.499 14.3121L12.5 13.3501ZM5.07322 13.1733C5.12011 13.1264 5.1837 13.1001 5.25 13.1001H10.75C10.8163 13.1001 10.8799 13.1264 10.9268 13.1733C10.9737 13.2202 11 13.2838 11 13.3501V14.3521C11.062 15.5451 10.235 16.1091 8.067 16.1091C5.887 16.1091 5 15.5261 5 14.3501V13.3501C5 13.2838 5.02634 13.2202 5.07322 13.1733Z" fill="var(--fill-0, #505862)"/>
<path fill-rule="evenodd" clip-rule="evenodd" d="M9.14805 4.82846C8.78407 4.67769 8.39397 4.6001 8 4.6001C7.20435 4.6001 6.44129 4.91617 5.87868 5.47878C5.31607 6.04139 5 6.80445 5 7.6001C5 8.39575 5.31607 9.15881 5.87868 9.72142C6.44129 10.284 7.20435 10.6001 8 10.6001C8.39397 10.6001 8.78407 10.5225 9.14805 10.3717C9.51203 10.221 9.84274 9.99999 10.1213 9.72142C10.3999 9.44284 10.6209 9.11212 10.7716 8.74815C10.9224 8.38417 11 7.99406 11 7.6001C11 7.20613 10.9224 6.81602 10.7716 6.45205C10.6209 6.08807 10.3999 5.75735 10.1213 5.47878C9.84274 5.2002 9.51203 4.97922 9.14805 4.82846ZM7.42597 6.21428C7.60796 6.1389 7.80302 6.1001 8 6.1001C8.39782 6.1001 8.77936 6.25813 9.06066 6.53944C9.34196 6.82074 9.5 7.20227 9.5 7.6001C9.5 7.99792 9.34196 8.37945 9.06066 8.66076C8.77936 8.94206 8.39782 9.1001 8 9.1001C7.80302 9.1001 7.60796 9.0613 7.42597 8.98592C7.24399 8.91053 7.07863 8.80005 6.93934 8.66076C6.80005 8.52147 6.68956 8.35611 6.61418 8.17412C6.5388 7.99213 6.5 7.79708 6.5 7.6001C6.5 7.40311 6.5388 7.20806 6.61418 7.02607C6.68956 6.84408 6.80005 6.67873 6.93934 6.53944C7.07863 6.40015 7.24399 6.28966 7.42597 6.21428Z" fill="var(--fill-0, #505862)"/>
<path fill-rule="evenodd" clip-rule="evenodd" d="M8 0C6.74122 0 5.67998 0.845748 5.35352 2H2.25C1.65326 2 1.08097 2.23705 0.65901 2.65901C0.237053 3.08097 0 3.65326 0 4.25V17.75C0 18.3467 0.237053 18.919 0.65901 19.341C1.08097 19.7629 1.65326 20 2.25 20H13.75C14.0455 20 14.3381 19.9418 14.611 19.8287C14.884 19.7157 15.1321 19.5499 15.341 19.341C15.5499 19.1321 15.7157 18.884 15.8287 18.611C15.9418 18.3381 16 18.0455 16 17.75V4.25C16 3.95453 15.9418 3.66194 15.8287 3.38896C15.7157 3.11598 15.5499 2.86794 15.341 2.65901C15.1321 2.45008 14.884 2.28434 14.611 2.17127C14.3381 2.0582 14.0455 2 13.75 2H10.6465C10.32 0.845748 9.25878 0 8 0ZM8 1.5C7.59105 1.5 7.22796 1.69639 6.99991 2H9.00009C8.77204 1.69639 8.40895 1.5 8 1.5ZM2.25 3.5C2.05109 3.5 1.86032 3.57902 1.71967 3.71967C1.57902 3.86032 1.5 4.05109 1.5 4.25V17.75C1.5 18.164 1.836 18.5 2.25 18.5H13.75C13.9489 18.5 14.1397 18.421 14.2803 18.2803C14.421 18.1397 14.5 17.9489 14.5 17.75V4.25C14.5 4.05109 14.421 3.86032 14.2803 3.71967C14.1397 3.57902 13.9489 3.5 13.75 3.5H2.25Z" fill="var(--fill-0, #505862)"/>
</g>
</svg>
