<svg preserveAspectRatio="none" width="100%" height="100%" overflow="visible" style="display: block;" viewBox="0 0 16 19.997" fill="none" xmlns="http://www.w3.org/2000/svg">
<path id="Vector" d="M13.75 11.996C14.0454 11.9959 14.338 12.0539 14.611 12.1669C14.8839 12.2799 15.132 12.4455 15.3409 12.6544C15.5499 12.8632 15.7156 13.1112 15.8287 13.3841C15.9418 13.657 16 13.9496 16 14.245V14.82C16 15.714 15.68 16.58 15.098 17.258C13.528 19.092 11.141 19.997 7.996 19.997C4.85 19.997 2.464 19.092 0.898 17.257C0.318385 16.5781 -3.05236e-05 15.7147 2.22343e-07 14.822V14.245C-0.000131137 13.9496 0.0579437 13.657 0.170908 13.384C0.283872 13.1111 0.449511 12.863 0.658363 12.6541C0.867215 12.4451 1.11519 12.2794 1.38811 12.1663C1.66104 12.0532 1.95357 11.995 2.249 11.995H13.75V11.996ZM13.75 13.496H2.249C2.15056 13.4959 2.05305 13.5151 1.96206 13.5527C1.87107 13.5903 1.78839 13.6455 1.71873 13.715C1.64907 13.7846 1.59381 13.8672 1.55611 13.9581C1.51841 14.0491 1.499 14.1466 1.499 14.245V14.822C1.499 15.358 1.691 15.876 2.039 16.283C3.292 17.751 5.258 18.497 7.996 18.497C10.734 18.497 12.702 17.751 13.958 16.283C14.307 15.8754 14.4989 15.3566 14.499 14.82V14.245C14.4991 14.1466 14.4799 14.0491 14.4423 13.9581C14.4047 13.8671 14.3495 13.7844 14.28 13.7147C14.2104 13.6451 14.1278 13.5898 14.0369 13.5521C13.9459 13.5144 13.8484 13.495 13.75 13.495V13.496ZM7.996 0C9.32208 0 10.5939 0.526784 11.5315 1.46447C12.4692 2.40215 12.996 3.67392 12.996 5C12.996 6.32608 12.4692 7.59785 11.5315 8.53553C10.5939 9.47322 9.32208 10 7.996 10C6.66992 10 5.39815 9.47322 4.46047 8.53553C3.52278 7.59785 2.996 6.32608 2.996 5C2.996 3.67392 3.52278 2.40215 4.46047 1.46447C5.39815 0.526784 6.66992 0 7.996 0V0ZM7.996 1.5C7.53637 1.5 7.08125 1.59053 6.65661 1.76642C6.23197 1.94231 5.84613 2.20012 5.52113 2.52513C5.19612 2.85013 4.93831 3.23597 4.76242 3.66061C4.58653 4.08525 4.496 4.54037 4.496 5C4.496 5.45963 4.58653 5.91475 4.76242 6.33939C4.93831 6.76403 5.19612 7.14987 5.52113 7.47487C5.84613 7.79988 6.23197 8.05769 6.65661 8.23358C7.08125 8.40947 7.53637 8.5 7.996 8.5C8.92426 8.5 9.8145 8.13125 10.4709 7.47487C11.1273 6.8185 11.496 5.92826 11.496 5C11.496 4.07174 11.1273 3.1815 10.4709 2.52513C9.8145 1.86875 8.92426 1.5 7.996 1.5Z" fill="var(--fill-0, #575B61)"/>
</svg>
