<svg preserveAspectRatio="none" width="100%" height="100%" overflow="visible" style="display: block;" viewBox="0 0 18 18" fill="none" xmlns="http://www.w3.org/2000/svg">
<path id="Vector" d="M15.25 0C15.9793 0 16.6788 0.289731 17.1945 0.805456C17.7103 1.32118 18 2.02065 18 2.75V15.25C18 15.6111 17.9289 15.9687 17.7907 16.3024C17.6525 16.636 17.4499 16.9392 17.1945 17.1945C16.9392 17.4499 16.636 17.6525 16.3024 17.7907C15.9687 17.9289 15.6111 18 15.25 18H2.75C2.38886 18 2.03127 17.9289 1.69762 17.7907C1.36398 17.6525 1.06082 17.4499 0.805456 17.1945C0.550095 16.9392 0.347532 16.636 0.209331 16.3024C0.0711308 15.9687 0 15.6111 0 15.25V2.75C0 2.02065 0.289731 1.32118 0.805456 0.805456C1.32118 0.289731 2.02065 0 2.75 0H15.25ZM15.25 1.5H2.75C2.06 1.5 1.5 2.06 1.5 2.75V15.25C1.5 15.94 2.06 16.5 2.75 16.5H15.25C15.94 16.5 16.5 15.94 16.5 15.25V2.75C16.5 2.06 15.94 1.5 15.25 1.5ZM4.75 6.003C5.13 6.003 5.443 6.284 5.493 6.649L5.5 6.75V13.257C5.49974 13.3552 5.48013 13.4524 5.4423 13.5431C5.40446 13.6337 5.34915 13.7161 5.2795 13.7853C5.20986 13.8546 5.12725 13.9095 5.0364 13.9468C4.94555 13.9842 4.84823 14.0033 4.75 14.003C4.56921 14.0031 4.39447 13.9379 4.25795 13.8194C4.12143 13.7008 4.03231 13.537 4.007 13.358L4 13.257V6.75C4 6.338 4.336 6.003 4.75 6.003ZM13.25 4.003C13.63 4.003 13.944 4.278 13.993 4.633L14 4.733V13.274C13.9987 13.3712 13.9783 13.4672 13.9399 13.5564C13.9015 13.6457 13.8459 13.7266 13.7762 13.7943C13.7066 13.8621 13.6242 13.9155 13.534 13.9515C13.4437 13.9875 13.3472 14.0053 13.25 14.004C13.071 14.0058 12.8972 13.943 12.7608 13.8271C12.6243 13.7112 12.5342 13.55 12.507 13.373L12.5 13.274V4.733C12.5013 4.63582 12.5217 4.53985 12.5601 4.45056C12.5985 4.36128 12.6541 4.28044 12.7238 4.21265C12.7934 4.14486 12.8758 4.09146 12.966 4.05548C13.0563 4.01951 13.1528 4.00168 13.25 4.003ZM8.975 9C9.15132 8.99751 9.32258 9.05892 9.45714 9.17289C9.59169 9.28685 9.68045 9.44568 9.707 9.62L9.715 9.72L9.75 13.267C9.7508 13.4603 9.67493 13.646 9.53902 13.7834C9.40311 13.9208 9.21826 13.9987 9.025 14C8.84868 14.0025 8.67742 13.9411 8.54286 13.8271C8.40831 13.7131 8.31955 13.5543 8.293 13.38L8.285 13.28L8.25 9.734C8.24894 9.54056 8.32469 9.35461 8.46063 9.21699C8.59656 9.07937 8.78157 9.00132 8.975 9Z" fill="var(--fill-0, #505862)"/>
</svg>
