<svg preserveAspectRatio="none" width="100%" height="100%" overflow="visible" style="display: block;" viewBox="0 0 20.004 20.003" fill="none" xmlns="http://www.w3.org/2000/svg">
<path id="Vector" d="M10.002 0C15.526 0 20.004 4.478 20.004 10.002C20.004 15.525 15.526 20.003 10.002 20.003C4.478 20.003 0 15.525 0 10.002C0 4.478 4.478 0 10.002 0ZM10.002 1.5C8.87781 1.48781 7.76236 1.6987 6.72022 2.12047C5.67808 2.54224 4.72993 3.16652 3.93066 3.95717C3.13139 4.74781 2.49687 5.68913 2.06382 6.72664C1.63077 7.76415 1.4078 8.87724 1.4078 10.0015C1.4078 11.1258 1.63077 12.2389 2.06382 13.2764C2.49687 14.3139 3.13139 15.2552 3.93066 16.0458C4.72993 16.8365 5.67808 17.4608 6.72022 17.8825C7.76236 18.3043 8.87781 18.5152 10.002 18.503C12.234 18.4688 14.363 17.5581 15.9294 15.9675C17.4957 14.377 18.3736 12.2343 18.3736 10.002C18.3736 7.76972 17.4957 5.62698 15.9294 4.03646C14.363 2.44594 12.234 1.53524 10.002 1.501V1.5ZM9.998 8.5C10.1794 8.49977 10.3548 8.56529 10.4916 8.68444C10.6284 8.80359 10.7173 8.96828 10.742 9.148L10.749 9.25L10.752 14.752C10.7519 14.942 10.6798 15.1249 10.55 15.2638C10.4203 15.4026 10.2427 15.4871 10.0531 15.5C9.86354 15.513 9.67611 15.4535 9.5287 15.3336C9.38129 15.2137 9.2849 15.0423 9.259 14.854L9.252 14.753L9.249 9.251C9.249 9.05209 9.32802 8.86132 9.46867 8.72067C9.60932 8.58002 9.80009 8.501 9.999 8.501L9.998 8.5ZM10.002 5.004C10.1358 4.99977 10.2691 5.02246 10.3939 5.07073C10.5187 5.11901 10.6326 5.19188 10.7287 5.28501C10.8249 5.37815 10.9013 5.48966 10.9535 5.61291C11.0057 5.73616 11.0326 5.86865 11.0326 6.0025C11.0326 6.13635 11.0057 6.26884 10.9535 6.39209C10.9013 6.51534 10.8249 6.62685 10.7287 6.71999C10.6326 6.81312 10.5187 6.88599 10.3939 6.93427C10.2691 6.98254 10.1358 7.00523 10.002 7.001C9.74265 6.99279 9.49667 6.884 9.31612 6.69764C9.13556 6.51128 9.0346 6.26198 9.0346 6.0025C9.0346 5.74302 9.13556 5.49372 9.31612 5.30736C9.49667 5.121 9.74265 5.01221 10.002 5.004V5.004Z" fill="var(--fill-0, white)"/>
</svg>
